<?xml version="1.0" encoding="UTF-8" standalone="no"?>
<!-- Created with Inkscape (http://www.inkscape.org/) -->

<svg
   width="167.18391mm"
   height="177.25253mm"
   viewBox="0 0 167.18391 177.25253"
   version="1.1"
   id="svg1"
   xml:space="preserve"
   inkscape:version="1.3.2 (091e20e, 2023-11-25, custom)"
   sodipodi:docname="logo.svg"
   xmlns:inkscape="http://www.inkscape.org/namespaces/inkscape"
   xmlns:sodipodi="http://sodipodi.sourceforge.net/DTD/sodipodi-0.dtd"
   xmlns="http://www.w3.org/2000/svg"
   xmlns:svg="http://www.w3.org/2000/svg"><sodipodi:namedview
     id="namedview1"
     pagecolor="#ffffff"
     bordercolor="#000000"
     borderopacity="0.25"
     inkscape:showpageshadow="2"
     inkscape:pageopacity="0.0"
     inkscape:pagecheckerboard="0"
     inkscape:deskcolor="#d1d1d1"
     inkscape:document-units="mm"
     inkscape:zoom="1.263294"
     inkscape:cx="160.69102"
     inkscape:cy="326.13153"
     inkscape:window-width="2557"
     inkscape:window-height="1360"
     inkscape:window-x="1218"
     inkscape:window-y="20"
     inkscape:window-maximized="0"
     inkscape:current-layer="g15"
     showguides="false" /><defs
     id="defs1" /><g
     inkscape:label="Layer 1"
     inkscape:groupmode="layer"
     id="layer1"
     transform="translate(-25.67998,-55.476368)"><g
       id="g15"
       style="fill:#f9f9f9"><path
         style="opacity:1;fill:#f2f2f2;fill-opacity:1;stroke:#000000;stroke-width:0.665001;stroke-opacity:0"
         d="m 30.063469,206.1495 c 21.639754,-10.14748 35.661023,-24.14404 29.361407,-47.91997 -8.470055,-31.96759 3.69648,-77.725481 66.118164,-63.401511 4.50359,-6.6838 9.76043,-20.918226 28.3948,-33.881199 C 79.708918,40.270255 14.216834,84.526758 27.810137,148.52585 c 3.960871,18.64831 12.942159,37.95615 2.253332,57.62365 z"
         id="path1"
         sodipodi:nodetypes="csccsc" /><path
         style="fill:#f2f2f2;fill-opacity:1;stroke:#000000;stroke-width:0.665001;stroke-opacity:0"
         d="m 63.861887,129.98215 c 9.066644,-27.95344 39.844523,-31.009978 58.777323,-25.13589 l 2.09503,-6.187169 c -17.5381,-6.23964 -53.353378,-8.524639 -64.142776,29.560529 0.04642,6.92891 2.244676,3.71756 3.270423,1.76253 z"
         id="path1-8"
         sodipodi:nodetypes="ccccc" /><path
         style="opacity:1;fill:#f2f2f2;fill-opacity:1;stroke:#000000;stroke-width:0.665001;stroke-opacity:0"
         d="M 68.221395,165.04018 C 51.825096,117.27258 91.054761,96.228817 126.6623,109.27681 112.86809,121.12103 85.222479,138.74695 68.221395,165.04018 Z"
         id="path2"
         sodipodi:nodetypes="ccc" /><path
         id="path3"
         style="opacity:1;fill:#f2f2f2;fill-opacity:1;stroke:#000000;stroke-width:0.665001;stroke-opacity:0"
         d="M 138.96299 100.00698 C 117.08328 126.98775 79.75607 143.1623 64.926163 181.89811 C 76.35677 178.73319 83.302912 177.98201 90.687382 177.18573 C 97.393488 185.17242 103.58877 192.24069 109.48417 199.28154 C 109.27578 200.59708 109.13167 202.08867 106.65695 202.00437 C 100.4436 195.69025 94.910679 188.72142 88.697322 181.74101 C 83.0679 181.95052 76.697693 182.96966 64.088488 185.9821 C 60.415231 195.98737 58.829172 196.47743 54.459102 201.92118 C 91.14325 203.76312 92.447387 203.98321 109.96993 216.37404 C 117.52288 221.71502 135.56984 233.74547 141.79021 232.26816 C 134.00235 218.42031 125.82907 212.89478 119.9042 158.85972 L 131.52778 156.55599 C 134.8459 160.06528 134.21668 163.87806 134.04132 167.65608 C 136.27244 165.0876 139.38967 162.23438 139.48647 155.29922 L 141.79021 155.19431 C 143.92647 159.31998 144.97104 164.07163 143.62317 168.33666 C 147.55107 166.14363 149.27622 161.19199 149.4347 155.08993 L 151.73895 155.08993 C 155.19852 161.5291 154.37034 166.0823 153.04792 170.7453 C 158.29317 168.09352 159.111 161.92268 158.96435 154.98502 L 162.31557 154.77573 L 138.96299 100.00698 z M 117.81647 133.58685 C 122.46065 133.48946 129.76358 136.05779 139.3056 138.49921 C 130.94246 148.63262 119.04141 146.88918 113.61105 135.09321 C 114.58889 134.07145 115.99919 133.62495 117.81647 133.58685 z " /><path
         style="opacity:1;fill:#f2f2f2;fill-opacity:1;stroke:#000000;stroke-width:0.665001;stroke-opacity:0"
         d="m 125.58533,171.34697 c 6.12769,-1.24975 13.8658,-1.00613 20.91678,5.24036 13.91991,12.33171 24.18426,5.65394 28.63217,4.54378 16.44046,-4.10338 26.75972,21.14775 5.09844,25.09244 13.92271,-6.06388 6.48649,-22.62701 -4.86621,-19.57068 -3.23612,0.87121 -18.52383,8.99834 -33.23688,-4.56054 -3.87273,-3.56893 -8.83009,-3.44664 -15.43358,-2.89628 z"
         id="path5"
         sodipodi:nodetypes="csscsscc" /><path
         style="opacity:1;fill:#f2f2f2;fill-opacity:1;stroke:#000000;stroke-width:0.665001;stroke-opacity:0"
         d="m 128.54725,191.33991 c 3.5181,-0.6872 6.85289,-4.48718 8.66361,-7.21967 0.53352,4.93337 -0.0945,9.56595 -3.40621,13.21756 l 2.59168,1.8512 c 4.01027,-3.25844 5.89679,-7.57876 7.36778,-12.10684 2.44711,4.15438 1.58684,9.55749 -1.29585,15.88328 l 1.77715,1.22179 c -4.43714,5.12144 -6.6078,6.52568 -9.55218,8.47849 -3.39835,-8.72823 -5.70484,-16.14622 -6.14598,-21.32581 z"
         id="path6"
         sodipodi:nodetypes="ccccccccc" /></g></g></svg>
